<?xml version="1.0" standalone="no"?>
<!DOCTYPE svg PUBLIC "-//W3C//DTD SVG 20010904//EN"
 "http://www.w3.org/TR/2001/REC-SVG-20010904/DTD/svg10.dtd">
<svg version="1.0" xmlns="http://www.w3.org/2000/svg"
 width="348.000000pt" height="348.000000pt" viewBox="0 0 348.000000 348.000000"
 preserveAspectRatio="xMidYMid meet">
<metadata>
Created by potrace 1.14, written by Peter Selinger 2001-2017
</metadata>
<g transform="translate(0.000000,348.000000) scale(0.100000,-0.100000)"
fill="#000000" stroke="none">
<path d="M2515 3438 c-44 -10 -195 -56 -335 -103 -512 -168 -965 -253 -1295
-242 -216 7 -318 36 -349 98 -19 38 -64 33 -94 -11 -21 -30 -23 -44 -20 -104
3 -57 8 -72 27 -87 28 -23 54 -24 74 -5 8 8 18 11 23 6 5 -5 38 -18 74 -31 58
-20 84 -22 232 -21 178 1 453 27 692 67 77 13 145 21 153 18 10 -4 13 -30 13
-102 0 -53 3 -106 6 -118 6 -21 3 -23 -27 -23 -19 -1 -52 -8 -74 -16 -22 -9
-96 -31 -165 -49 -130 -34 -270 -85 -356 -128 -27 -14 -70 -28 -95 -32 -66
-10 -138 -53 -174 -103 -16 -24 -75 -92 -130 -151 -64 -69 -116 -136 -144
-187 -24 -43 -57 -99 -72 -124 -16 -25 -45 -79 -64 -120 -35 -73 -36 -78 -35
-180 1 -58 -3 -123 -9 -145 -18 -68 -14 -213 8 -259 28 -60 41 -155 34 -249
-5 -73 -3 -88 17 -127 12 -25 37 -63 55 -85 22 -27 34 -56 39 -90 14 -93 43
-153 87 -178 21 -12 39 -30 39 -39 0 -46 34 -100 89 -142 71 -54 93 -66 126
-66 15 0 52 -15 83 -33 92 -53 225 -107 341 -136 60 -15 120 -37 135 -49 37
-28 81 -36 164 -27 37 3 153 9 257 13 157 6 194 5 214 -7 13 -8 58 -17 105
-19 94 -5 144 13 218 77 24 20 84 56 133 80 76 38 103 58 178 135 48 50 93 97
100 103 7 7 35 33 62 57 85 75 164 235 165 332 0 44 55 175 95 229 49 65 68
118 69 185 1 36 -5 80 -13 98 -11 25 -12 60 -8 141 5 84 3 113 -8 135 -8 16
-15 38 -15 51 0 12 -6 41 -14 63 -8 22 -17 62 -21 89 -4 26 -13 70 -22 96 -15
49 -65 117 -87 117 -6 0 -31 34 -55 76 -186 321 -456 523 -831 619 -36 9 -70
21 -77 26 -6 6 -43 13 -82 16 l-71 6 0 136 c0 75 4 142 8 149 9 14 286 120
457 175 145 46 220 60 300 55 65 -4 66 -4 131 -68 73 -73 100 -121 110 -198 5
-44 3 -56 -12 -73 -48 -54 -133 -66 -207 -30 -41 20 -87 76 -87 106 0 8 -4 15
-10 15 -15 0 -12 -115 3 -153 21 -48 82 -85 172 -104 71 -14 83 -14 143 1 81
20 128 55 154 114 17 38 20 58 14 121 -8 102 -21 144 -66 221 -53 90 -123 156
-190 179 -81 28 -189 31 -285 9z m95 -19 c0 -6 7 -8 17 -5 9 4 20 1 24 -5 6
-10 17 -10 50 0 57 17 116 0 173 -50 69 -61 106 -124 106 -179 0 -30 6 -52 15
-60 12 -10 15 -9 16 6 0 15 2 13 10 -6 6 -14 11 -61 12 -105 3 -139 -43 -179
-206 -184 -70 -2 -137 13 -137 31 0 5 -6 8 -12 5 -12 -4 -48 28 -48 43 0 4 24
-1 53 -11 65 -23 82 -23 140 -3 71 24 91 59 84 141 -4 43 -15 80 -31 107 -37
62 -137 164 -170 172 -15 4 -74 4 -130 1 -82 -5 -127 -14 -238 -50 -126 -41
-138 -43 -138 -26 0 27 -20 24 -21 -3 l-2 -23 -4 23 c-6 28 -23 19 -23 -13 0
-24 -16 -32 -200 -98 -45 -16 -69 -31 -78 -47 -9 -18 -12 -72 -10 -202 2 -102
-1 -174 -6 -171 -5 4 -6 -7 -2 -23 l7 -29 -19 30 c-17 27 -33 88 -64 230 -31
147 -47 161 -175 152 -48 -4 -97 -8 -108 -10 -21 -5 -91 -16 -135 -22 -33 -5
-111 -17 -132 -21 -10 -1 -77 -6 -150 -9 -73 -3 -149 -8 -168 -12 -37 -5 -64
-7 -117 -4 -26 1 -33 5 -33 21 0 11 -4 20 -10 20 -5 0 -10 -9 -10 -21 0 -15
-4 -19 -16 -15 -9 3 -19 6 -24 6 -4 0 -11 10 -14 23 l-7 22 -10 -24 c-6 -15
-14 -21 -25 -17 -9 3 -22 6 -30 6 -8 0 -33 18 -56 40 -40 38 -43 39 -50 19
-17 -44 -58 8 -58 72 0 69 63 84 68 16 3 -35 16 -50 24 -26 3 8 19 4 47 -11
73 -37 172 -51 346 -51 88 0 192 4 230 10 107 16 115 15 115 -14 0 -14 5 -25
10 -25 6 0 10 14 10 30 0 20 5 30 15 30 9 0 15 -9 15 -25 0 -14 5 -25 10 -25
6 0 10 13 10 29 0 27 3 29 53 35 213 28 594 129 872 231 77 28 282 82 323 84
6 1 12 -4 12 -10z m-627 -666 c50 -8 91 -49 107 -108 12 -42 11 -49 -6 -72
-28 -36 -102 -73 -149 -73 -22 0 -56 -5 -75 -10 -60 -18 -221 -15 -279 5 l-53
17 7 37 c8 45 28 67 87 97 46 23 47 23 53 4 9 -27 56 -59 100 -66 46 -7 136
20 164 50 16 17 19 30 14 58 -4 30 -11 38 -34 43 -16 4 -29 11 -29 16 0 10 38
12 93 2z m-282 -31 c-69 -24 -172 -87 -189 -115 -38 -61 -30 -117 21 -147 l32
-20 -36 0 c-43 0 -52 10 -68 73 -9 38 -9 52 3 75 15 29 53 67 101 100 30 20
135 52 145 44 3 -3 -1 -7 -9 -10z m444 -22 c19 -8 19 -9 -2 -9 -12 -1 -25 4
-28 9 -7 12 2 12 30 0z m-689 -74 l-31 -63 -57 1 c-63 2 -63 2 -72 33 -6 19 0
25 39 42 25 11 63 23 83 27 20 4 44 10 52 15 8 5 15 9 16 9 0 0 -13 -29 -30
-64z m751 56 c10 -6 8 -16 -6 -42 -19 -36 -67 -77 -56 -48 3 8 1 27 -4 41 -9
24 -8 27 9 27 11 0 20 7 20 15 0 16 18 19 37 7z m120 -44 c15 -7 29 -13 31
-14 8 -4 -62 -96 -88 -114 -26 -19 -61 -26 -72 -15 -2 3 15 25 39 51 24 25 46
58 50 75 6 34 4 33 40 17z m113 -64 c0 -12 -22 -24 -44 -24 -8 0 -11 10 -8 29
4 27 6 29 28 19 13 -6 24 -17 24 -24z m-1139 -50 l34 -11 -43 -5 c-47 -4 -56
2 -66 46 -11 44 16 55 30 13 8 -23 20 -35 45 -43z m-141 52 c0 -8 -11 -17 -25
-20 -34 -9 -65 -61 -66 -111 -1 -22 -3 -32 -6 -21 -3 10 -2 43 2 72 6 48 10
55 43 73 45 24 52 25 52 7z m1370 -46 c20 -14 27 -26 23 -40 -6 -23 18 -63 50
-85 17 -11 31 -12 54 -6 27 8 35 5 62 -23 17 -18 31 -34 31 -37 0 -3 -18 -11
-39 -18 -34 -10 -45 -8 -87 10 -59 25 -90 52 -115 101 -18 34 -27 118 -13 118
3 0 19 -9 34 -20z m-1524 -26 c-3 -9 -6 -18 -6 -21 0 -3 -7 0 -15 7 -13 11
-13 15 -3 21 21 13 31 10 24 -7z m428 -24 l7 -25 -17 23 c-9 12 -26 22 -38 23
-19 1 -18 2 4 8 29 9 35 5 44 -29z m963 23 c32 -7 35 -47 6 -75 -14 -13 -31
-35 -39 -50 -20 -39 -50 -36 -68 6 -8 18 -19 37 -26 41 -8 5 -6 11 7 21 28 21
33 17 33 -26 0 -22 4 -40 9 -40 18 0 41 43 36 67 -3 13 -7 35 -11 49 -4 23 -2
25 13 19 10 -4 28 -10 40 -12z m-1224 -14 c8 -13 2 -26 -24 -59 -32 -40 -34
-41 -40 -18 -3 12 -1 40 4 61 8 30 14 37 30 35 11 -2 25 -10 30 -19z m950 -26
c74 -15 117 -101 98 -196 -10 -46 -20 -63 -56 -96 -38 -35 -51 -41 -89 -41
-36 0 -48 5 -65 26 -27 34 -27 72 1 101 31 33 56 29 74 -12 7 -19 14 -44 14
-55 0 -24 25 -27 34 -4 3 9 6 35 6 59 0 36 -6 50 -34 80 -38 40 -55 41 -109 3
-73 -51 -77 -182 -7 -231 19 -13 18 -14 -20 -26 -42 -12 -60 -34 -60 -73 0
-32 27 -68 51 -68 25 0 24 8 -6 32 -51 40 -20 88 57 88 26 0 48 -2 48 -5 0 -3
-13 -23 -29 -45 -15 -22 -31 -57 -35 -79 -3 -22 -10 -42 -14 -45 -5 -3 -31 2
-58 10 -27 8 -51 15 -54 16 -3 0 -13 14 -23 30 -17 29 -17 29 13 55 42 35 60
84 67 181 6 80 5 84 -26 133 l-32 51 25 32 c19 25 37 35 79 45 30 6 63 21 73
32 10 11 24 17 33 14 9 -4 29 -9 44 -12z m502 -3 c10 -11 14 -20 8 -20 -5 0
-18 9 -28 20 -10 11 -14 20 -8 20 5 0 18 -9 28 -20z m-1764 -13 c-10 -9 -11
-8 -5 6 3 10 9 15 12 12 3 -3 0 -11 -7 -18z m65 -22 c-36 -28 -27 -49 17 -39
27 6 30 5 19 -8 -17 -21 -71 -31 -88 -17 -11 9 -9 18 14 50 25 35 49 51 62 41
3 -2 -8 -14 -24 -27z m433 22 c28 -12 76 -73 93 -119 4 -9 2 -31 -4 -50 -13
-43 -100 -95 -142 -84 -49 12 -30 87 30 112 40 17 46 44 9 44 -34 0 -80 -24
-99 -52 -24 -33 -20 -92 7 -123 19 -23 31 -27 73 -27 27 1 62 5 77 11 21 8 27
8 27 -4 0 -15 -5 -17 -90 -35 -30 -7 -67 -19 -82 -26 -26 -13 -28 -12 -51 19
-40 53 -47 73 -47 139 0 55 5 71 35 120 33 53 79 87 116 88 9 0 31 -6 48 -13z
m485 -51 c-17 -33 -17 -33 -78 -29 -51 3 -68 0 -101 -19 -79 -46 -100 -149
-44 -213 36 -40 75 -46 132 -19 33 16 75 79 62 93 -14 13 -40 5 -66 -21 -34
-34 -62 -36 -77 -4 -15 33 13 87 51 100 40 14 93 -16 108 -62 27 -81 -8 -149
-89 -171 -97 -28 -184 7 -227 88 -15 30 -15 37 1 100 l18 68 -26 52 c-14 28
-24 51 -23 51 2 0 16 -7 31 -15 45 -23 165 -19 249 10 96 32 98 32 79 -9z
m586 -34 c-16 -17 -30 -27 -30 -23 0 12 50 64 56 58 3 -2 -9 -18 -26 -35z
m-1352 -62 l0 -25 -8 25 c-4 14 -8 36 -8 50 l0 25 8 -25 c4 -14 8 -36 8 -50z
m-252 28 c54 -61 85 -157 58 -179 -8 -6 -14 -17 -14 -24 0 -18 -53 -81 -96
-116 -43 -34 -84 -37 -154 -13 -71 25 -73 29 -43 83 22 37 80 125 101 151 6 9
82 -79 82 -95 0 -8 -12 -21 -26 -27 -23 -11 -28 -9 -48 17 -26 32 -42 21 -27
-18 27 -70 120 -76 154 -10 21 40 3 98 -46 145 l-40 39 33 34 c19 19 37 35 40
35 4 0 15 -10 26 -22z m1735 -39 l34 -14 -30 -5 c-23 -5 -37 0 -63 22 -18 15
-38 28 -45 28 -7 0 -3 7 8 15 17 14 21 13 41 -8 12 -13 37 -30 55 -38z m-1558
4 c3 -16 8 -35 12 -44 5 -12 -1 -16 -22 -17 -22 0 -31 7 -44 33 -15 31 -14 33
10 47 32 18 37 16 44 -19z m1361 6 c112 -31 176 -156 130 -252 l-16 -34 -38
36 c-31 29 -35 38 -23 45 24 13 45 73 33 95 -16 32 -69 70 -110 81 -28 8 -38
15 -34 25 7 18 8 18 58 4z m482 -80 l49 -71 -35 -29 c-42 -35 -58 -38 -25 -4
30 29 31 40 5 83 -15 24 -27 32 -49 32 -33 0 -46 -13 -37 -37 5 -12 9 -13 20
-3 12 9 17 7 25 -9 16 -30 13 -41 -11 -41 -33 1 -52 19 -75 70 l-19 45 45 16
c25 9 49 17 52 18 4 0 29 -31 55 -70z m-186 1 c0 -13 -1 -13 -10 0 -5 8 -10
22 -10 30 0 13 1 13 10 0 5 -8 10 -22 10 -30z m-300 -10 c25 -13 40 -27 40
-39 0 -25 -42 -52 -61 -40 -8 5 -33 9 -57 9 l-42 0 22 45 c26 51 40 54 98 25z
m228 3 c-10 -2 -26 -2 -35 0 -10 3 -2 5 17 5 19 0 27 -2 18 -5z m-1526 -52
c-63 -11 -102 -53 -112 -122 -7 -49 -8 -50 -9 -15 -1 33 4 62 25 134 2 8 25
12 71 11 62 -1 64 -2 25 -8z m1560 -36 c20 -14 39 -34 43 -45 8 -26 -33 -81
-55 -74 -8 3 -28 8 -43 11 -21 4 -26 10 -21 22 3 9 9 37 11 64 3 26 11 47 17
47 6 0 28 -11 48 -25z m134 -24 c23 -6 25 -9 11 -14 -11 -4 -27 3 -45 21 -16
15 -20 21 -11 14 9 -7 30 -17 45 -21z m-1624 -33 l34 -53 -23 -40 c-12 -22
-25 -58 -29 -81 -6 -43 -6 -43 -76 -44 -50 -2 -75 14 -80 49 l-4 30 24 -20
c47 -36 108 -18 131 40 16 37 11 71 -11 85 -23 14 -31 3 -34 -46 -2 -43 -15
-58 -51 -58 -21 0 -23 5 -23 45 0 57 27 124 54 135 40 16 53 10 88 -42z m1810
1 c2 -6 -8 -24 -23 -40 -14 -15 -32 -42 -39 -59 -16 -38 -29 -35 -58 18 l-23
41 47 7 c26 4 54 15 63 25 19 21 28 23 33 8z m-577 -49 c64 -37 85 -63 85
-105 0 -51 -10 -69 -47 -94 -50 -32 -91 -36 -131 -11 -34 21 -49 48 -52 96 -3
49 -1 54 26 54 21 0 29 -8 41 -40 9 -22 20 -40 25 -40 15 0 28 49 19 73 -32
83 -150 76 -166 -9 -20 -108 56 -205 163 -206 27 0 59 5 70 11 17 9 20 7 25
-19 4 -15 16 -37 27 -48 l21 -19 -59 -17 c-80 -22 -124 -20 -180 8 -81 41
-162 173 -162 262 0 39 5 50 50 96 l49 51 71 -6 c54 -4 84 -13 125 -37z m392
-7 c-3 -10 -5 -4 -5 12 0 17 2 24 5 18 2 -7 2 -21 0 -30z m-1222 -4 c36 -17
107 -132 108 -173 2 -69 -51 -125 -124 -132 -48 -5 -61 3 -111 64 -36 43 -37
90 -5 121 40 36 67 9 58 -58 -7 -47 30 -47 55 0 20 39 9 93 -23 119 -36 28
-103 27 -131 -3 -52 -56 -67 -158 -33 -226 23 -43 78 -89 118 -97 27 -5 28 -8
28 -69 0 -62 -1 -63 -19 -47 -63 55 -136 141 -161 191 -28 56 -57 171 -50 203
9 40 52 87 100 110 46 22 142 20 190 -3z m1184 -52 c1 -4 -5 -2 -13 5 -7 7
-11 19 -8 27 4 11 7 10 13 -5 4 -10 8 -23 8 -27z m271 34 c0 -5 -7 -25 -15
-44 -29 -70 -12 -162 31 -173 30 -8 63 19 65 50 1 28 38 -121 39 -157 l0 -27
-37 15 c-72 30 -122 96 -143 189 -8 37 -7 54 7 88 9 24 21 49 26 56 11 14 27
16 27 3z m-2101 -138 c-15 -40 -51 -82 -65 -76 -10 4 -5 13 16 35 34 33 39 72
13 100 -15 17 -15 20 8 44 l24 26 7 -53 c3 -29 2 -63 -3 -76z m-300 85 c9 -3
6 -9 -13 -21 -25 -17 -26 -17 -26 2 0 11 -3 28 -7 38 -6 17 -5 17 13 2 10 -9
25 -18 33 -21z m2024 25 c3 -5 -17 -8 -44 -8 -27 0 -49 3 -49 7 0 10 87 10 93
1z m437 -18 c22 -57 23 -75 6 -75 -9 0 -19 -7 -22 -15 -5 -12 -10 -13 -20 -4
-19 16 -18 79 3 101 21 23 22 23 33 -7z m-385 -19 c41 -62 42 -156 1 -156 -12
0 -39 -9 -61 -20 l-39 -20 -21 20 c-16 17 -20 34 -20 87 0 58 2 66 22 74 33
12 54 -11 60 -64 3 -26 9 -50 14 -53 5 -3 18 10 29 28 22 36 19 80 -8 111 -9
10 -11 17 -4 17 6 0 19 -11 27 -24z m-958 8 c-3 -3 -12 -4 -19 -1 -8 3 -5 6 6
6 11 1 17 -2 13 -5z m70 -21 c-2 -1 -14 1 -27 4 -22 6 -22 7 -4 13 15 6 40 -8
31 -17z m-1290 -17 c0 -19 -5 -33 -9 -30 -14 9 -8 64 8 64 1 0 2 -15 1 -34z
m328 -31 c0 -32 -46 -31 -84 0 -17 15 -31 30 -31 34 0 5 26 3 58 -3 46 -10 57
-16 57 -31z m957 8 c26 -30 31 -62 14 -88 -9 -14 -23 -25 -31 -25 -8 0 -15 -7
-15 -15 0 -21 23 -19 54 6 21 17 26 29 26 66 0 44 1 45 18 30 10 -9 33 -22 50
-28 41 -14 41 -38 0 -84 -40 -46 -97 -75 -145 -75 -59 0 -66 9 -47 55 10 26
14 60 12 107 -3 67 -3 68 23 68 14 0 33 -8 41 -17z m1048 -73 c0 -24 -22 -35
-45 -22 -12 6 -17 24 -19 61 l-1 53 32 -36 c18 -20 33 -45 33 -56z m-2211 68
c-2 -2 -17 -10 -34 -18 -36 -19 -44 -59 -20 -96 20 -31 45 -31 75 1 28 30 43
17 27 -25 -11 -30 -15 -30 -90 -15 l-38 7 3 62 c3 59 4 61 38 77 19 10 37 15
39 13 2 -2 2 -5 0 -6z m156 -68 l40 -8 -35 -1 c-40 0 -59 11 -85 54 -18 29
-17 29 11 -4 20 -22 43 -36 69 -41z m-341 -21 c-25 -27 -26 -19 -6 32 16 42
17 43 20 16 2 -17 -4 -37 -14 -48z m199 53 c3 -4 -5 -19 -18 -34 -20 -24 -24
-25 -28 -9 -8 33 30 70 46 43z m311 -73 c-7 -39 -8 -41 -17 -21 -7 16 -6 29 3
47 18 34 22 26 14 -26z m1086 31 c10 -19 10 -20 -9 -8 -22 13 -28 28 -11 28 5
0 14 -9 20 -20z m474 -75 c9 -14 23 -25 32 -25 8 0 12 -4 9 -10 -7 -11 -65 15
-77 34 -10 14 -10 71 -1 80 5 4 11 -6 14 -23 4 -17 14 -42 23 -56z m-1365 -17
c1 -10 -3 -18 -8 -18 -5 0 -8 11 -8 25 0 33 -20 55 -49 55 -24 0 -32 -14 -14
-25 14 -9 12 -43 -2 -48 -27 -8 -48 7 -58 42 -14 51 -14 51 33 45 23 -3 53 -1
67 4 23 9 25 7 32 -27 4 -20 7 -44 7 -53z m-675 18 c-31 -62 -44 -70 -44 -29
0 25 57 99 68 88 2 -2 -9 -29 -24 -59z m1554 -20 c-2 -15 -12 -22 -31 -24 -32
-4 -47 -29 -26 -43 39 -25 109 10 109 55 1 21 1 21 12 1 6 -11 19 -29 29 -41
16 -17 17 -23 5 -39 -12 -16 -18 -17 -59 -7 -68 18 -108 15 -160 -12 l-47 -23
0 21 c0 13 23 44 56 76 31 30 61 66 66 80 l10 25 19 -24 c11 -13 19 -34 17
-45z m892 44 c14 -27 -13 -67 -52 -78 -26 -6 -35 -2 -77 38 -51 48 -60 66 -15
31 36 -28 79 -27 107 3 12 13 23 24 24 25 1 1 7 -8 13 -19z m-2070 -10 c20
-11 63 -79 75 -118 6 -21 5 -23 -13 -13 -12 6 -31 11 -43 11 -21 0 -21 1 -6
18 24 27 21 58 -9 81 -34 27 -74 27 -110 0 l-29 -21 28 26 c30 27 74 34 107
16z m1861 -24 c45 -19 86 -64 93 -101 6 -29 6 -29 -7 4 -27 71 -106 107 -166
77 -17 -9 -31 -14 -31 -11 0 3 61 39 76 45 1 0 17 -6 35 -14z m-1881 -43 c0
-9 -6 -13 -13 -10 -8 3 -20 1 -27 -3 -11 -7 -11 -11 -1 -24 11 -14 11 -16 -4
-16 -10 0 -27 -8 -38 -17 -19 -18 -19 -17 -13 17 9 43 47 80 76 73 11 -3 20
-12 20 -20z m2206 -43 c54 -28 72 -70 31 -70 -14 0 -45 20 -76 48 -43 38 -52
52 -47 68 6 21 7 21 35 -5 15 -14 41 -33 57 -41z m-2329 30 c-7 -17 -13 -26
-15 -21 -3 10 15 51 22 51 3 0 -1 -14 -7 -30z m-147 1 c0 -4 -11 -13 -25 -19
-20 -9 -25 -9 -25 1 0 19 21 36 36 30 8 -3 14 -8 14 -12z m2018 -6 c-6 -14
-13 -23 -15 -21 -5 5 15 46 22 46 3 0 -1 -11 -7 -25z m-1568 -10 c0 -1 -7 -8
-15 -15 -13 -10 -15 -9 -15 8 0 15 5 20 15 16 8 -4 15 -7 15 -9z m1707 -7 c8
-6 13 -21 11 -32 -4 -31 -55 -37 -93 -11 -16 11 -32 21 -35 23 -3 2 6 13 20
24 26 21 69 19 97 -4z m-1017 -27 c25 -10 25 -10 2 -10 -14 -1 -27 -10 -34
-26 -15 -32 -5 -41 29 -26 21 10 29 9 40 -2 12 -11 10 -17 -7 -40 -25 -31 -56
-34 -86 -9 -48 41 -58 102 -21 132 19 16 24 16 37 5 9 -8 27 -18 40 -24z
m-1050 4 c0 -9 -9 -15 -23 -15 -12 0 -39 -9 -60 -19 -20 -10 -37 -15 -37 -11
0 12 51 43 85 51 16 4 31 7 33 8 1 1 2 -6 2 -14z m540 -4 c16 -32 11 -42 -10
-21 -26 26 -72 25 -130 -1 -50 -23 -48 -17 7 17 49 30 118 32 133 5z m372 -31
c-6 -83 53 -150 131 -150 37 0 91 41 104 80 7 19 12 28 12 20 0 -8 -10 -44
-22 -80 l-23 -65 -39 3 c-21 2 -48 10 -60 18 -12 8 -24 12 -27 9 -9 -10 -76
64 -87 97 -15 43 -14 118 2 118 8 0 11 -15 9 -50z m228 7 c0 -16 -2 -16 -25
-1 -14 9 -25 17 -25 18 0 0 11 1 25 1 17 0 25 -5 25 -18z m421 7 c-19 -8 -42
-20 -50 -27 -14 -11 -14 -10 -1 7 15 19 45 35 70 35 8 0 0 -6 -19 -15z m959
-19 c0 -19 -4 -35 -10 -35 -11 0 -14 53 -3 63 11 12 13 8 13 -28z m-2706 2
c-11 -5 -25 -17 -31 -25 -12 -14 -13 -14 -13 0 0 18 41 48 54 41 5 -3 0 -10
-10 -16z m223 -9 c-3 -7 -5 -2 -5 12 0 14 2 19 5 13 2 -7 2 -19 0 -25z m1883
3 c64 -34 139 -121 140 -163 0 -15 -5 -50 -11 -78 -12 -58 -59 -113 -115 -136
-30 -13 -36 -12 -67 6 -45 26 -74 82 -82 156 -7 60 -7 63 26 97 30 31 38 34
72 30 29 -4 41 -11 48 -30 22 -58 1 -133 -35 -120 -21 8 -22 75 -1 83 24 10
18 34 -9 34 -53 0 -76 -93 -35 -144 35 -44 121 -28 147 29 28 61 9 131 -50
180 -27 23 -39 26 -78 22 -25 -2 -52 -8 -61 -11 -11 -5 -18 -1 -22 11 -2 10
-8 25 -12 35 -4 11 -1 18 12 21 44 11 82 5 133 -22z m319 -3 c7 -18 23 -50 37
-71 24 -36 24 -40 9 -63 -8 -13 -18 -24 -20 -24 -3 0 -15 17 -28 38 -24 37
-43 132 -30 145 13 13 21 7 32 -25z m145 -48 c18 -6 40 -8 49 -4 21 8 22 -9 2
-26 -13 -10 -24 -8 -62 16 -26 16 -56 45 -66 64 l-20 35 32 -37 c17 -20 46
-41 65 -48z m-256 -16 l-23 -34 -22 27 c-22 27 -31 49 -15 39 12 -7 72 22 73
36 1 7 4 3 6 -10 3 -14 -5 -37 -19 -58z m-1647 46 c29 -16 24 -100 -7 -100 -7
0 -18 9 -24 20 -13 25 -40 26 -40 3 0 -11 -7 -4 -17 16 -16 33 -16 34 6 52 26
21 53 24 82 9z m1225 -26 c33 -35 34 -36 18 -66 -9 -17 -18 -54 -21 -84 -6
-56 -11 -61 -44 -44 -22 12 -25 41 -7 70 9 15 10 22 1 31 -9 9 -18 5 -37 -14
-33 -33 -35 -88 -5 -116 22 -20 83 -36 99 -26 6 3 10 2 10 -3 0 -5 -11 -14
-25 -20 -21 -10 -35 -8 -80 9 -50 19 -55 23 -48 42 4 12 8 54 8 94 0 61 -3 75
-24 96 l-23 25 38 21 c61 32 100 28 140 -15z m-1862 -32 c-6 -75 -16 -112 -36
-137 -11 -14 -24 -22 -29 -19 -6 3 1 16 16 29 19 18 25 34 25 65 0 47 -26 57
-36 13 -10 -48 -12 -49 -13 -6 -1 34 5 50 31 78 35 41 48 34 42 -23z m141 48
c10 -16 -37 -50 -52 -38 -7 5 -17 7 -23 3 -15 -9 -12 -61 4 -74 12 -10 12 -18
-2 -51 -10 -22 -20 -40 -23 -40 -6 0 0 166 6 187 6 19 80 29 90 13z m308 -59
l60 -62 -6 -66 c-8 -82 -33 -133 -78 -156 -67 -35 -149 9 -164 89 -11 54 54
134 110 134 26 0 22 -56 -6 -83 -29 -27 -23 -39 18 -35 30 2 42 10 60 37 27
40 23 63 -15 104 -30 32 -60 34 -117 8 -140 -63 -136 -239 7 -312 20 -10 45
-19 55 -19 15 0 18 -9 18 -60 -1 -47 -5 -64 -23 -83 -25 -27 -82 -47 -131 -47
-29 0 -32 2 -25 22 3 12 6 45 6 74 0 50 -5 62 -74 187 -34 62 -20 132 48 232
54 80 95 108 153 102 38 -4 51 -12 104 -66z m1134 48 c48 -30 66 -71 67 -155
l1 -71 -41 9 c-30 7 -58 5 -100 -6 -32 -8 -61 -13 -64 -10 -3 3 -5 42 -5 86 0
67 3 82 19 94 26 18 54 10 89 -28 22 -24 26 -32 16 -44 -6 -8 -22 -14 -35 -14
-26 0 -30 -10 -12 -28 31 -31 108 11 108 58 0 69 -89 132 -155 110 -19 -6 -44
-25 -56 -41 -28 -40 -36 -123 -15 -173 19 -45 19 -46 7 -46 -13 0 -38 74 -46
131 -5 41 -2 50 22 79 31 37 94 69 137 70 16 0 44 -9 63 -21z m-806 -133 c6
-32 13 -64 16 -72 3 -8 1 -14 -5 -14 -17 0 -42 79 -42 134 0 69 14 109 17 51
2 -22 8 -66 14 -99z m1862 62 c-43 -46 -63 -89 -65 -145 -1 -47 -1 -47 -5 -8
-6 57 12 110 53 150 44 44 59 46 17 3z m-257 -95 c17 -57 13 -79 -20 -130 -23
-35 -62 -54 -110 -52 -19 1 -24 3 -11 6 11 2 30 6 42 9 13 2 38 18 58 35 30
27 35 37 35 75 0 24 -9 67 -20 96 -14 38 -15 47 -4 33 8 -11 22 -44 30 -72z
m-1415 48 c69 -14 79 -19 100 -51 42 -63 72 -143 76 -210 5 -63 4 -66 -33
-108 -71 -83 -154 -118 -211 -89 -63 34 -97 90 -107 183 -6 45 -3 56 23 94 32
47 74 70 131 70 47 0 68 -23 76 -82 8 -60 -21 -108 -66 -108 -16 0 -32 5 -35
11 -14 22 6 60 40 76 39 19 46 48 14 56 -69 18 -133 -79 -103 -158 9 -23 57
-45 98 -45 73 0 135 94 122 185 -13 87 -81 132 -181 122 l-51 -5 -3 45 c-2 41
0 45 16 38 10 -5 52 -15 94 -24z m1678 -37 c-32 -34 -37 -21 -8 21 17 25 25
30 27 19 2 -9 -6 -27 -19 -40z m-1969 26 c0 -23 -87 -24 -92 -2 -4 14 3 17 44
17 36 0 48 -4 48 -15z m1639 -34 c15 -62 14 -87 -6 -102 -29 -22 -32 -16 -16
26 13 32 14 50 6 85 -13 58 1 49 16 -9z m200 17 c-4 -21 -6 -46 -3 -56 5 -17
4 -17 -15 2 -12 12 -31 21 -43 22 -22 0 -22 1 -3 9 11 4 31 20 44 34 14 14 25
26 27 26 1 0 -2 -17 -7 -37z m-1252 -75 c-49 -67 -39 -103 13 -48 l29 31 7
-26 c11 -43 -10 -75 -49 -75 -32 0 -34 3 -51 58 -10 31 -21 63 -24 70 -3 9 2
11 19 7 14 -3 36 -2 49 4 14 5 26 10 28 10 2 1 -8 -14 -21 -31z m1423 -8 c0
-16 -10 -45 -21 -65 -15 -25 -20 -46 -16 -68 3 -19 0 -40 -8 -50 -33 -46 -24
105 11 185 19 42 34 41 34 -2z m-2033 24 c-3 -3 -12 -4 -19 -1 -8 3 -5 6 6 6
11 1 17 -2 13 -5z m67 -45 c19 -35 19 -38 2 -83 -10 -25 -27 -51 -39 -58 -18
-9 -18 -7 6 21 37 44 37 102 2 137 -21 20 -22 25 -8 22 10 -2 27 -19 37 -39z
m1751 11 c18 -36 32 -38 45 -7 6 15 9 17 9 5 1 -9 4 -23 7 -31 4 -12 0 -14
-14 -11 -16 5 -41 -4 -107 -35 -5 -2 -2 8 8 22 9 15 17 40 17 57 0 38 15 38
35 0z m-2435 -27 c0 -7 -7 -10 -17 -6 -14 5 -15 1 -10 -32 6 -34 5 -36 -8 -19
-14 19 -20 75 -9 87 9 8 44 -15 44 -30z m626 -19 c8 -30 -28 -74 -60 -74 -12
0 -28 -5 -36 -10 -23 -14 3 -34 44 -34 31 0 33 -1 17 -13 -13 -9 -28 -10 -51
-3 -18 5 -35 9 -39 8 -3 0 -14 0 -24 1 -16 1 -16 4 6 34 14 17 34 51 46 75 19
37 25 42 56 42 29 0 36 -4 41 -26z m1004 -9 c41 -39 100 -160 100 -204 -1 -42
-13 -61 -60 -90 -40 -24 -115 -28 -142 -7 -41 31 -53 146 -19 187 19 23 20 23
40 5 11 -10 20 -21 19 -25 -3 -28 4 -71 12 -71 21 0 42 50 36 83 -9 51 -39 77
-87 77 -73 0 -119 -78 -104 -176 5 -39 16 -57 49 -90 67 -68 144 -77 238 -28
26 13 26 13 37 -34 11 -50 16 -99 13 -146 l-2 -30 -29 28 c-24 23 -39 28 -102
32 -41 3 -84 7 -96 10 -32 6 -86 56 -136 127 -49 68 -74 153 -63 215 8 50 50
109 104 143 42 28 53 30 106 26 45 -4 64 -11 86 -32z m-1632 -95 c12 0 22 5
22 11 0 6 9 1 19 -12 20 -25 13 -49 -15 -49 -27 0 -78 40 -91 72 l-14 33 29
-28 c15 -15 38 -27 50 -27z m2532 11 c0 -20 5 -54 11 -75 9 -32 8 -46 -7 -80
-10 -23 -19 -43 -21 -45 -1 -2 -14 4 -28 13 l-26 17 30 35 c36 41 39 75 11
122 -15 25 -26 32 -51 32 -16 0 -39 -5 -50 -10 -12 -7 -19 -7 -19 -1 0 15 58
30 108 28 41 -1 42 -1 42 -36z m-625 19 c3 -5 0 -10 -7 -10 -8 0 -23 -6 -34
-14 -18 -14 -18 -16 -3 -31 14 -14 21 -15 39 -5 19 10 27 9 49 -8 41 -30 39
-50 -6 -58 -47 -10 -50 -10 -89 -2 -29 6 -33 13 -44 60 -7 29 -17 59 -23 66
-7 9 4 12 51 12 34 0 64 -4 67 -10z m288 -37 c17 -5 16 -7 -3 -20 -22 -16 -27
-53 -7 -53 7 0 23 7 36 17 23 15 25 15 37 -2 52 -70 -62 -133 -122 -68 -22 24
-25 33 -19 73 8 53 22 73 44 64 9 -3 24 -9 34 -11z m138 -23 c12 -43 10 -95
-5 -116 -20 -27 -28 -14 -14 24 10 26 9 37 -5 67 -9 19 -22 35 -27 35 -6 0 -8
5 -5 11 12 19 49 5 56 -21z m-1116 10 l20 -9 -20 0 c-11 0 -27 4 -35 9 -13 9
-13 10 0 9 8 0 24 -4 35 -9z m819 4 c20 -8 21 -44 3 -69 -13 -16 -14 -15 -9
14 2 17 -1 38 -8 46 -14 16 -10 18 14 9z m426 -43 c0 -35 -22 -81 -39 -81 -5
0 -11 24 -15 53 -5 41 -3 54 10 64 26 19 44 4 44 -36z m-1790 2 c0 -11 -57
-42 -64 -35 -3 3 6 13 22 23 30 19 42 23 42 12z m-165 -24 c35 -14 63 -43 78
-81 l15 -36 -40 -32 c-32 -26 -42 -30 -49 -19 -6 10 -2 16 13 19 34 9 43 33
29 79 -12 42 -49 71 -91 71 -11 0 -20 5 -20 11 0 10 20 6 65 -12z m-530 -36
c28 -43 32 -68 10 -89 -12 -13 -16 -11 -30 15 -14 27 -22 111 -10 111 2 0 16
-17 30 -37z m1275 18 c0 -5 -12 -11 -27 -13 -16 -3 -37 -8 -48 -12 -17 -7 -17
-5 4 13 23 21 71 29 71 12z m-1163 -66 c-7 -74 -42 -141 -59 -111 -6 10 -1 31
15 63 18 35 22 55 17 75 -6 21 -4 28 9 31 9 3 18 5 20 6 2 0 1 -28 -2 -64z
m423 -16 c0 -16 -37 -14 -62 4 -23 17 -25 23 -15 44 l10 24 34 -33 c18 -17 33
-35 33 -39z m190 52 c0 -4 11 -25 25 -45 l24 -36 -27 0 c-23 0 -31 7 -45 38
-21 49 -21 52 3 52 11 0 20 -4 20 -9z m1285 -11 c-3 -5 -14 -10 -23 -9 -14 0
-13 2 3 9 27 11 27 11 20 0z m-726 -62 c7 -24 17 -48 23 -55 13 -16 -3 -24
-65 -29 -41 -4 -61 -1 -97 18 -25 13 -45 28 -45 34 0 6 14 22 30 36 l30 26 0
-41 c0 -31 4 -42 17 -45 12 -2 19 5 23 22 3 14 7 37 10 51 4 20 12 25 34 25
24 0 29 -6 40 -42z m801 -7 c17 -41 -2 -92 -52 -147 -39 -42 -41 -43 -63 -26
l-22 17 38 17 c31 13 39 23 45 53 12 64 -33 71 -57 8 -5 -13 -17 -23 -27 -23
-23 0 -57 37 -65 70 -6 25 -6 25 68 25 57 0 79 4 92 18 23 23 29 22 43 -12z
m-1634 -46 c34 -31 44 -45 32 -45 -10 0 -26 9 -35 19 -55 59 -64 71 -55 71 5
0 32 -20 58 -45z m370 -10 c34 -26 45 -55 22 -55 -7 0 -23 -3 -34 -6 -17 -4
-23 0 -28 21 -7 27 -62 59 -88 51 -7 -3 -26 -7 -43 -11 -46 -10 -18 12 30 24
56 14 101 6 141 -24z m1366 18 c4 -2 -3 -16 -17 -31 -14 -15 -31 -42 -37 -59
-7 -18 -18 -33 -25 -33 -8 0 -4 15 12 46 14 26 25 57 25 70 0 22 11 24 42 7z
m-1834 -85 c-33 -15 -43 -16 -50 -6 -13 21 -9 37 11 55 11 9 17 23 14 32 -2 9
12 -2 31 -23 l36 -39 -42 -19z m697 72 c8 -25 55 -59 95 -66 50 -10 19 -28
-34 -20 -49 8 -69 27 -81 79 -8 31 10 38 20 7z m-155 -28 c0 -14 -1 -23 -3
-21 -2 2 -10 16 -20 30 -15 26 -15 27 3 22 13 -4 20 -14 20 -31z m1577 22 c50
-19 51 -26 22 -115 -23 -71 -42 -110 -71 -152 l-20 -28 -25 33 c-37 48 -63
108 -63 146 0 30 2 33 27 30 32 -3 44 -36 19 -50 -23 -13 -20 -38 4 -38 35 0
80 29 80 51 0 12 -15 36 -34 55 -44 44 -94 47 -125 8 -33 -42 -29 -127 8 -185
15 -25 40 -55 54 -66 26 -20 26 -21 7 -38 -19 -17 -20 -17 -27 1 -3 11 -31 46
-61 79 -70 76 -88 116 -71 159 7 17 24 45 37 63 42 57 154 79 239 47z m-2211
-16 c-9 -12 -16 -32 -17 -43 0 -13 -4 -8 -12 15 -12 33 -11 35 13 41 14 4 26
7 28 8 2 0 -4 -9 -12 -21z m714 -2 c0 -17 -54 -58 -64 -49 -3 3 3 12 14 20 11
8 20 21 20 29 0 8 7 14 15 14 8 0 15 -6 15 -14z m-811 -48 c1 -10 -4 -15 -12
-12 -28 10 -51 -22 -51 -72 -1 -46 1 -49 22 -46 30 3 24 -22 -5 -26 -18 -3
-23 5 -33 52 -14 66 -10 80 32 125 29 31 32 32 39 15 4 -10 8 -27 8 -36z m576
36 c26 -26 14 -46 -48 -81 l-59 -33 -29 29 c-16 16 -29 34 -29 39 0 17 36 41
76 51 58 13 71 13 89 -5z m605 -29 c0 -10 -10 -15 -32 -15 l-33 1 30 14 c17 7
31 14 33 14 1 1 2 -6 2 -14z m560 -24 c23 -10 23 -10 -10 -8 -29 2 -36 6 -38
27 -3 23 -2 23 10 8 7 -10 24 -22 38 -27z m-1640 -36 c0 -5 -5 -3 -10 5 -5 8
-10 20 -10 25 0 6 5 3 10 -5 5 -8 10 -19 10 -25z m628 23 c8 -8 8 -17 1 -30
-8 -14 -14 -16 -29 -8 -31 17 -118 12 -162 -10 -23 -11 -43 -18 -46 -16 -11
12 151 75 194 76 16 0 35 -5 42 -12z m70 -25 c-25 -29 -59 -102 -68 -146 l-8
-42 -1 43 c-1 50 20 104 57 144 27 30 46 30 20 1z m-769 -53 c1 -21 -9 -51
-24 -75 -13 -22 -24 -35 -24 -30 0 6 6 19 14 29 10 13 15 44 16 85 0 46 3 60
9 46 5 -11 9 -36 9 -55z m357 40 c46 -33 64 -59 84 -126 11 -37 10 -45 -15
-95 -41 -81 -63 -108 -102 -124 -30 -13 -38 -13 -61 -1 -63 33 -100 99 -87
155 7 33 67 73 103 69 33 -4 44 -44 15 -55 -18 -7 -33 -22 -33 -35 0 -5 16 -8
35 -8 37 0 72 28 81 67 8 30 -25 85 -57 97 -57 20 -158 -35 -185 -101 -30 -69
-14 -137 44 -191 36 -35 36 -35 5 -19 -68 36 -140 160 -130 224 7 40 65 115
117 151 51 34 128 31 186 -8z m755 10 c10 -6 19 -16 19 -22 0 -7 -4 -7 -14 1
-8 6 -33 16 -57 20 l-44 9 38 1 c21 1 47 -4 58 -9z m-1164 -37 c-3 -10 -5 -4
-5 12 0 17 2 24 5 18 2 -7 2 -21 0 -30z m918 17 c3 -5 0 -29 -7 -54 -10 -39
-16 -45 -46 -51 -19 -3 -36 -4 -39 -1 -7 6 15 75 33 103 13 21 47 22 59 3z
m900 -71 c7 -19 15 -55 19 -81 7 -44 5 -50 -20 -73 -15 -14 -33 -25 -40 -25
-22 0 -20 34 3 53 17 14 23 29 23 58 0 47 -11 72 -54 118 l-31 34 44 -25 c31
-18 48 -36 56 -59z m-376 26 c100 -3 144 -26 197 -102 47 -68 60 -98 73 -176
8 -46 7 -65 -4 -95 -18 -43 -32 -54 -112 -82 -136 -48 -223 19 -223 173 0 60
10 80 62 117 28 21 53 30 79 30 33 0 41 -4 55 -32 28 -54 -2 -158 -46 -158
-39 0 -32 77 10 100 30 16 25 40 -9 40 -70 0 -109 -113 -56 -165 68 -69 185 5
185 117 0 45 -34 110 -69 131 -38 22 -116 21 -159 -1 -28 -15 -41 -16 -78 -8
-48 12 -49 12 -58 102 l-5 51 41 -20 c28 -14 64 -21 117 -22z m521 7 c-1 -23
-2 -25 -11 -9 -5 9 -18 17 -27 17 -15 1 -15 2 2 15 24 18 36 11 36 -23z m-817
-2 c32 -16 35 -42 8 -77 l-20 -24 -20 20 c-12 12 -21 30 -21 42 0 12 -5 19
-12 16 -7 -2 -13 -18 -13 -35 0 -36 -2 -37 -28 -18 -10 8 -28 11 -40 8 -22 -5
-22 -5 3 24 58 68 79 75 143 44z m-451 5 c2 -3 0 -32 -5 -66 -8 -49 -15 -63
-34 -72 -28 -13 -34 -8 -26 21 3 13 13 22 25 22 31 0 18 34 -14 38 -36 4 -68
-29 -68 -70 0 -38 7 -50 35 -66 19 -11 19 -11 -6 -12 -14 0 -30 -5 -36 -11 -8
-8 -10 7 -6 53 3 34 0 82 -5 105 -9 40 -8 43 17 52 28 10 114 14 123 6z m1030
-32 c20 -36 33 -93 20 -93 -5 0 -22 16 -36 35 -19 25 -25 41 -20 60 8 32 16
32 36 -2z m188 -17 c0 -8 -4 -18 -10 -21 -5 -3 -10 3 -10 14 0 12 5 21 10 21
6 0 10 -6 10 -14z m81 -57 c-5 -13 -10 -19 -10 -12 -1 15 10 45 15 40 3 -2 0
-15 -5 -28z m-56 -23 c-3 -11 -8 -35 -11 -52 -4 -17 -15 -36 -26 -43 -28 -17
-35 -5 -12 20 13 15 18 34 17 64 -1 38 1 42 19 37 15 -3 18 -10 13 -26z m-908
-38 c43 -26 81 -92 88 -151 5 -44 3 -51 -23 -75 -65 -60 -112 -65 -158 -15
-30 33 -40 84 -25 134 13 43 29 49 54 21 12 -13 15 -28 10 -55 -6 -41 1 -46
29 -20 45 40 8 137 -57 148 -62 12 -134 -69 -135 -152 -1 -138 179 -249 283
-173 15 12 27 17 27 13 0 -4 3 -18 6 -29 5 -18 0 -22 -23 -26 -15 -3 -56 -13
-89 -22 -131 -35 -185 -3 -229 136 -38 120 -41 157 -17 211 25 55 51 74 122
85 58 9 84 3 137 -30z m98 22 c3 -5 2 -10 -4 -10 -5 0 -13 5 -16 10 -3 6 -2
10 4 10 5 0 13 -4 16 -10z m45 -52 l-5 -63 -3 49 c-3 43 2 76 10 76 2 0 1 -28
-2 -62z m929 -1 c24 -14 38 -27 33 -31 -5 -3 -15 1 -22 9 -23 28 -42 18 -35
-19 7 -36 -8 -57 -27 -38 -14 14 -29 98 -21 118 6 15 7 15 18 1 6 -9 31 -27
54 -40z m-808 -7 c22 0 22 1 8 -38 -9 -25 -47 -52 -75 -52 -2 0 -4 30 -4 66
l0 65 26 -20 c15 -12 35 -21 45 -21z m696 -52 c-3 -8 -6 -5 -6 6 -1 11 2 17 5
13 3 -3 4 -12 1 -19z m-1297 1 c0 -5 -4 -8 -10 -4 -15 10 -83 -24 -107 -53
-13 -15 -23 -22 -23 -16 0 24 79 84 110 84 17 0 30 -5 30 -11z m1263 -39 c5
-18 3 -19 -11 -8 -9 7 -19 13 -21 15 -1 1 0 7 4 12 9 15 21 6 28 -19z m82 -25
c19 -15 19 -16 -5 -4 -26 12 -40 27 -40 43 0 6 6 2 13 -7 6 -9 21 -24 32 -32z
m-1392 -59 l-18 -24 -28 26 -28 26 43 22 43 22 3 -24 c2 -13 -5 -35 -15 -48z
m-104 21 c24 -41 35 -92 23 -113 -7 -12 -10 -5 -15 30 -4 25 -18 64 -32 86
-16 26 -20 37 -10 34 8 -3 23 -20 34 -37z m1312 16 c-12 -20 -14 -14 -5 12 4
9 9 14 11 11 3 -2 0 -13 -6 -23z m-664 -15 c-3 -8 -6 -5 -6 6 -1 11 2 17 5 13
3 -3 4 -12 1 -19z m743 -8 c0 -4 -9 -10 -20 -13 -21 -5 -24 1 -14 27 5 13 9
14 20 5 8 -6 14 -15 14 -19z m-1504 6 c3 -8 4 -22 2 -30 -2 -12 -11 -11 -53 7
l-50 22 40 6 c22 3 44 7 48 8 4 0 10 -5 13 -13z m1567 -7 c4 -3 -5 -16 -20
-30 -16 -13 -22 -17 -15 -9 6 8 12 25 12 39 0 13 3 20 8 15 4 -5 10 -11 15
-15z m-693 -26 c7 -21 23 -58 36 -82 34 -61 32 -77 -12 -86 -43 -8 -46 -5 -63
60 -7 28 -18 62 -26 77 -12 26 -11 29 13 47 36 27 39 27 52 -16z m612 -45
c-24 -16 -27 -16 -30 -2 -7 32 5 44 32 31 l24 -12 -26 -17z m-166 -70 c-9 -5
-26 -20 -39 -33 -41 -44 -159 -69 -234 -49 -46 13 -24 29 40 29 77 0 182 46
218 95 l24 32 3 -33 c2 -22 -2 -35 -12 -41z m-1036 1 c0 -4 -16 -2 -35 4 -19
6 -35 14 -35 18 0 4 16 2 35 -4 19 -6 35 -14 35 -18z"/>
</g>
</svg>
